<svg width="16" height="16" viewBox="0 0 16 16" fill="none" xmlns="http://www.w3.org/2000/svg">
<path fill-rule="evenodd" clip-rule="evenodd" d="M10 2.5C10 2.30904 9.89122 2.13475 9.71968 2.05085C9.54813 1.96694 9.34377 1.98809 9.19303 2.10533L5.39095 5.0625H2.9375C2.68886 5.0625 2.4504 5.16128 2.27459 5.33709C2.09877 5.51291 2 5.75136 2 6V9.5C2 9.74864 2.09877 9.9871 2.27459 10.1629C2.4504 10.3387 2.68886 10.4375 2.9375 10.4375H5.39095L9.19303 13.3947C9.34377 13.5119 9.54813 13.5331 9.71968 13.4492C9.89122 13.3653 10 13.191 10 13V2.5ZM5.86947 5.95718L9 3.52232V11.9777L5.86947 9.54283C5.7817 9.47456 5.67369 9.4375 5.5625 9.4375H3V6.0625H5.5625C5.67369 6.0625 5.7817 6.02544 5.86947 5.95718ZM14.9142 6.70711L13.6642 7.95711L14.9142 9.20711L14.2071 9.91421L12.9571 8.66421L11.7071 9.91421L11 9.20711L12.25 7.95711L11 6.70711L11.7071 6L12.9571 7.25L14.2071 6L14.9142 6.70711Z" fill="#141414"/>
</svg>
