<svg width="16" height="16" viewBox="0 0 16 16" fill="none" xmlns="http://www.w3.org/2000/svg">
<path fill-rule="evenodd" clip-rule="evenodd" d="M5.625 4.67079C5.625 3.53644 6.56663 2.59937 7.75 2.59937C8.93337 2.59937 9.875 3.53644 9.875 4.67079C9.875 5.80514 8.93337 6.74222 7.75 6.74222C6.56663 6.74222 5.625 5.80514 5.625 4.67079ZM7.75 1.59937C6.03388 1.59937 4.625 2.96482 4.625 4.67079C4.625 6.37677 6.03388 7.74222 7.75 7.74222C9.46612 7.74222 10.875 6.37677 10.875 4.67079C10.875 2.96482 9.46612 1.59937 7.75 1.59937ZM3 12.1785C3 11.0442 3.94163 10.1071 5.125 10.1071H9.5V9.10712H5.125C3.40888 9.10712 2 10.4726 2 12.1785V14C2 14.1326 2.05268 14.2598 2.14645 14.3535C2.24022 14.4473 2.36739 14.5 2.5 14.5L7.5 14.5L7.5 13.5L3 13.5V12.1785ZM12 10C12.86 10 13.58 10.6122 13.756 11.4367C14.456 11.5184 15 12.1224 15 12.8571C15 13.6449 14.372 14.2857 13.6 14.2857H10.4C9.628 14.2857 9 13.6449 9 12.8571C9 12.1224 9.544 11.5184 10.244 11.4367C10.42 10.6122 11.14 10 12 10Z" fill="#141414"/>
</svg>
